<?xml version="1.0" standalone="no"?><!DOCTYPE svg PUBLIC "-//W3C//DTD SVG 1.1//EN" "http://www.w3.org/Graphics/SVG/1.1/DTD/svg11.dtd"><svg t="1729240126761" class="icon" viewBox="0 0 1024 1024" version="1.1" xmlns="http://www.w3.org/2000/svg" p-id="655" width="16" height="16" xmlns:xlink="http://www.w3.org/1999/xlink"><path d="M789.994667 161.130667a32 32 0 0 0-39.296 22.442666l-69.824 256a32 32 0 0 0 22.464 39.296 32 32 0 0 0 39.296-22.442666l69.824-256a32 32 0 0 0-22.464-39.296zM533.333333 288a32 32 0 0 0-32 32 32 32 0 0 0 32 32h213.333334a32 32 0 0 0 32-32 32 32 0 0 0-32-32z m-234.666666-234.666667A32 32 0 0 0 266.666667 85.333333v853.333334a32 32 0 0 0 59.946666 15.552L530.858667 586.666667H682.666667a32 32 0 0 0 30.869333-23.573334l128-469.333333A32 32 0 0 0 810.666667 53.333333z m32 64h438.08l-110.528 405.333334H512a32 32 0 0 0-27.946667 16.448L330.666667 815.210667z" p-id="656" fill="#ea9518"></path></svg>